<?xml version="1.0" encoding="UTF-8"?>
<svg width="709px" height="180px" viewBox="0 0 709 180" version="1.1" xmlns="http://www.w3.org/2000/svg" xmlns:xlink="http://www.w3.org/1999/xlink">
    <!-- Generator: Sketch 45.2 (43514) - http://www.bohemiancoding.com/sketch -->
    <title>logo</title>
    <desc>Created with Sketch.</desc>
    <defs></defs>
    <g id="Page-1" stroke="none" stroke-width="1" fill="none" fill-rule="evenodd">
        <g id="logo" fill-rule="nonzero" fill="#FFFFFF">
            <path d="M158.431,165.498 L150.077,142.79 C150.077,142.79 136.502,157.93 116.145,157.93 C98.132,157.93 85.343,142.268 85.343,117.209 C85.343,85.103 101.525,73.618 117.45,73.618 C140.419,73.618 147.727,88.496 153.993,107.552 L162.347,133.655 C170.698,158.973 186.36,179.333 231.517,179.333 C263.887,179.333 285.812,169.415 285.812,143.313 C285.812,122.17 273.803,111.206 251.354,105.985 L234.649,102.331 C223.165,99.721 219.772,95.022 219.772,87.191 C219.772,78.316 226.818,73.095 238.305,73.095 C250.834,73.095 257.62,77.794 258.665,89.018 L284.767,85.885 C282.679,62.393 266.496,52.735 239.871,52.735 C216.38,52.735 193.409,61.61 193.409,90.062 C193.409,107.812 202.023,119.037 223.686,124.257 L241.438,128.432 C254.75,131.565 259.186,137.046 259.186,144.617 C259.186,154.273 249.79,158.189 232.04,158.189 C205.676,158.189 194.715,144.355 188.449,125.299 L179.835,99.198 C168.874,65.264 151.383,52.735 116.666,52.735 C78.296,52.735 57.935,77.01 57.935,118.252 C57.935,157.929 78.296,179.332 114.841,179.332 C144.333,179.332 158.431,165.498 158.431,165.498 L158.431,165.498 Z" id="path5"></path>
            <path d="M46.726,153.229 C44.116,154.013 41.505,154.535 38.112,154.535 C31.847,154.535 27.409,151.665 27.409,144.093 L27.409,1.827 L0,1.827 L0,150.619 C0,170.196 13.575,178.291 29.497,178.291 C34.718,178.291 39.678,177.506 45.943,175.942 L46.726,153.229 L46.726,153.229 Z" id="path7"></path>
            <path d="M376.911,149.053 C370.124,153.754 364.382,156.104 356.551,156.104 C346.631,156.104 341.15,150.883 341.15,138.092 L341.15,77.006 L377.173,77.006 L377.173,55.603 L341.41,55.603 L341.41,26.625 L313.741,30.019 L313.741,55.602 L296.251,55.602 L296.251,77.005 L313.741,77.005 L313.741,143.831 C313.741,167.851 327.575,179.331 350.025,179.331 C362.294,179.331 373.257,176.985 381.872,172.026 L376.911,149.053 L376.911,149.053 Z" id="path9"></path>
            <path d="M400.718,158.449 C400.718,169.154 409.072,177.767 419.774,177.767 C431,177.767 439.352,169.154 439.352,158.449 C439.352,147.486 430.999,139.136 419.774,139.136 C409.072,139.136 400.718,147.486 400.718,158.449 L400.718,158.449 Z" id="path11"></path>
            <path d="M467.727,77.006 L467.727,176.201 L495.136,176.201 L495.136,77.006 L525.939,77.006 L525.939,55.603 L495.136,55.603 L495.136,44.638 C495.136,28.194 502.185,22.973 513.67,22.973 C521.762,22.973 527.244,24.798 533.509,28.194 L537.946,5.22 C530.638,1.827 522.023,0 511.582,0 C488.609,0 467.727,10.963 467.727,43.593 L467.727,55.603 L450.238,55.603 L450.238,77.006 L467.727,77.006 L467.727,77.006 Z" id="path13"></path>
            <path d="M635.154,79.358 C632.021,59.78 619.231,52.729 602.524,52.729 C585.818,52.729 571.462,60.3 565.195,78.833 L561.802,55.603 L539.614,55.603 L539.614,176.201 L567.023,176.201 L567.023,108.072 C567.023,84.837 579.031,75.962 591.822,75.962 C605.134,75.962 610.617,84.837 610.617,99.194 L610.617,176.2 L637.764,176.2 L637.764,107.81 C637.764,84.836 650.033,75.961 662.825,75.961 C675.877,75.961 681.357,84.836 681.357,99.193 L681.357,176.199 L708.766,176.199 L708.766,89.539 C708.766,63.696 693.626,52.729 673.526,52.729 C656.561,52.729 641.419,60.3 635.154,79.358 L635.154,79.358 Z" id="path15"></path>
        </g>
    </g>
</svg>